<?xml version="1.0" encoding="UTF-8"?>
<svg viewBox="0 0 736.75763 514.86017" xmlns="http://www.w3.org/2000/svg">
 <g transform="matrix(1.25 0 0 -1.25 270.4 603.63)">
  <path d="m-214.24 176.94 498.55 53.553 8.1715 16.044 22.43-2.0177 39.527-2.5502s47.178-12.751-26.777-36.977-543.98-133.97-543.98-133.97z" fill="#623b19"/>
  <path d="m307.72 241.65h-0.9563s33.999-3.2304 33.828-6.1204c-5.2233-7.9201-46.185-14.334-46.901-14.447l-6e-3 0.0287-508.71-84.135v-4.2256l509.03 86.658 6e-3 -0.0281s43.61 6.9932 49.128 15.643c-1.1704 3.8022-20.522 6.1598-33.146 7.3694-2.9952 0.28699-18.672 2.1193-18.124 1.8867 4.7632-2.0233 15.848-2.6302 15.848-2.6302"/>
  <path d="m-214.01 114.68 0.81733-9.4037 516.79 111.57-78.49-15.082z" fill="#2b2b2b"/>
  <path d="m351.81 231.7c-5.5179-8.6501-57.639-16.76-57.639-16.76l-6e-3 0.0281-509.57-100.25v4.2256l509.25 97.724 6e-3 -0.0287c0.71659 0.11221 49.563 7.0166 54.787 14.937-0.19157 0.14367 3.2435 5.311-9.3768 6.3666 0 0-16.21 3.0834-14.178 2.9151 0.76247-0.0631 13.849-1.8632 15.055-2.1089 4.7833-0.97454 11.853-3.3686 11.675-7.0522"/>
  <path d="m288.52 242.15-0.73636-2.0714s32.757-2.1714 32.593-4.1147c-5.0321-5.3228-44.497-9.6345-45.187-9.7097l-6e-3 0.0191-490.11-56.552v-2.8402l490.43 58.247 6e-3 -0.0192s42.016 4.7006 47.332 10.515c-0.11539 5.6836-34.313 6.5252-34.313 6.5252" fill="#2b2b2b"/>
  <path d="m310.66 240.14-2.3422-0.26219s5.2262-1.052 4.9641-4.195-13.144-4.8593-13.144-4.8593l-0.0174 0.035-516.06-67.418v-3.391l516.39 69.428 0.0174-0.0174 5.2088 1.1711c8.3176 2.228 9.1709 3.9229 9.4389 5.5759 0.26202 2.6196-4.4572 3.9329-4.4572 3.9329z" fill="#2b2b2b"/>
  <path d="m-214.93 166.89-1.0162-3.4491 256.27 33.784z"/>
  <path d="m-215.03 132.75 0.61203-7.843 502.78 93.46z" fill="#2b2b2b"/>
  <path d="m-215.94 160.05 0.70831-8.1624 501.93 74.814-213.68-26.569z"/>
  <path d="m306.31 240.88-12.912 0.92196 13.232-3.01c1.864-0.42402 6.3459-2.1654 5.4954-3.0691-1.7556-1.8654-21.726-6.1447-21.726-6.1447 3.9193 0.34444 11.637 0.98945 17.261 2.6511 6.7332 1.9895 10.308 5.2484-1.3502 8.6508z"/>
  <path d="m312 238.24c1.87-0.39675 8.4429-1.5193 7.5924-2.423-1.7556-1.8654-23.773-6.5396-23.773-6.5396 35.73 4.8044 27.005 9.2378 14.636 10.344-6.7635 0.60463-12.434 1.5848 1.5438-1.381z"/>
  <path d="m324.9 240.86c0.0935-0.17558 9.8629-2.0365 12.55-2.55-3.1858 0.67638-11.71 2.4949-12.375 2.55-0.127 0.0105-0.1821 0.0134-0.175 0zm12.55-2.55 1.85-0.4c4.7833-0.97454 8.4698-2.0087 8.2922-5.6922-8.4182-6.6925-19.554-8.5947-28.042-11.033 12.954 2.7302 26.463 6.4399 29.075 10.4-0.19157 0.14367 3.2453 5.3194-9.375 6.375l-1.8 0.35zm-18.025-17.15c-12.908-2.7149-25.218-4.4441-25.575-4.5v0.025l-509.25-97.725v-4.225l509.58 100.25v-0.05s12.429 2.5667 25.25 6.225z" fill="#2b2b2b"/>
  <path d="m335.48 237.61c2.7838-1.2198 3.6777-2.4651 3.175-3.7 3.008 1.8049 2.6038 3.1752-3.175 3.7z" fill="#2b2b2b"/>
  <path d="m338.65 233.91c-4.7974-2.8787-18.299-6.8807-32.725-10.3 3.7672 0.6361 7.5635 1.3016 11.2 2.075 11.006 2.3407 20.317 5.2582 21.525 8.225z" fill="#2b2b2b"/>
  <path d="m314.74 225.27c-8.536-1.4413-25.706-4.3515-31.464-6.1867 5.6712 1.0493 18.387 2.7064 24.66 4.128 1.4322 0.32452 5.3815 1.7216 6.8036 2.0587z" fill="#2b2b2b"/>
  <path d="m366.56 230.93h-2.0082v64.271h2.0082v-64.271z" fill="#646669"/>
  <path d="m366.54 226.69-0.85268 0.75132v98.046h3.6714v-96.059z" fill="#646669"/>
  <path d="m373.08 317.29h-111.47v3.0831h111.47v-3.0831z" fill="#646669"/>
  <path d="m297.77 297.21h-2.5106v-55.735h2.5106v55.735z" fill="#646669"/>
  <path d="m266.58 325.43h-3.4636v-97.392h3.4636z" fill="#646669"/>
  <path d="m309.6 245.22h-0.73594v20.149h0.73594v-20.149z" fill="#646669"/>
  <path d="m303.29 239.46h-2.2282v44.186h2.2282v-44.186z" fill="#646669"/>
  <path d="m317.09 282.38-2.3379 11.952 0.61178 0.10925 2.3597-11.952-0.63363-0.10924z" fill="#3b3c3d"/>
  <path d="m309.6 264.7-0.30589 0.56808 7.7128 4.1514-3.1463 4.9816-22.898 15.251-105.42 42.082h-0.0218l-54.317 19.599-345.55 117.29 0.21849 0.61178 345.55-117.31 54.339-19.599 105.42-42.082h0.0437l0.0218-0.0218 23.029-15.338 0.0655-0.0437 0.0218-0.0437 3.3429-5.3312 0.19665-0.28404-0.30589-0.17479-7.9968-4.3043z" fill="#3b3c3d"/>
  <path d="m-94.559 428.43-0.73342 54.476h0.63363l0.73342-54.454-0.63363-0.0218z" fill="#3b3c3d"/>
  <path d="m-2.4986 396.91-0.63363 0.0218 1.369 47.529h0.63363l-1.369-47.551z" fill="#3b3c3d"/>
  <path d="m61.629 375.29-0.63363 0.0218 1.7691 43.774 0.65548-0.0218z" fill="#3b3c3d"/>
  <path d="m109.74 360.35-0.63363 0.0218 2.0757 43.764 0.63362-0.0218-2.0757-43.764z" fill="#3b3c3d"/>
  <path d="m147.34 345.41-0.63363 0.0437 3.788 51.59 0.63363-0.0655-3.788-51.568z" fill="#3b3c3d"/>
  <path d="m177.71 335.12-0.63362 0.0218 1.0269 31.807 0.63363-0.0218z" fill="#3b3c3d"/>
  <path d="m189.56 329.92-0.63363 0.0218 1.595 29.016 0.63362-0.0437-1.595-28.994z" fill="#3b3c3d"/>
  <path d="m199.78 326.62-0.63363 0.0437 1.9227 29.518 0.63363-0.0437-1.9227-29.518z" fill="#3b3c3d"/>
  <path d="m217.06 319.28-0.63363 0.0655 2.8916 37.841 0.63362-0.0437-2.8916-37.863z" fill="#3b3c3d"/>
  <path d="m230.68 313.99-0.63362 0.0655 3.7581 33.32 0.63363-0.0874-3.7581-33.298z" fill="#3b3c3d"/>
  <path d="m243.15 309.12-0.63363 0.0437 1.158 20.058 0.63363-0.0437-1.158-20.058z" fill="#3b3c3d"/>
  <path d="m252.57 305.56-0.63363 0.0655 1.3328 15.928 0.63362-0.0655-1.3328-15.928z" fill="#3b3c3d"/>
  <path d="m187.52 330.99-0.17479 0.61178s11.907 3.4586 17.938 4.0421c5.966 0.57722 27.443 2.2068 27.443 2.2068l0.0655-0.63363s-21.508-1.6326-27.443-2.2068c-5.869-0.56785-17.829-4.0203-17.829-4.0203z" fill="#3b3c3d"/>
  <path d="m201.62 355.53-0.1311 0.0437-10.75 3.0589-0.0437 0.0218-0.0437 0.0218-12.476 8.259-0.0437 0.0218-0.0437 0.0655-17.567 26.765 0.54623 0.34959 17.501-26.722 12.345-8.1716h0.0437l10.575-3.0152 13.48 6.9187 0.28404-0.56808-13.568-6.9842-0.10925-0.0655z" fill="#3b3c3d"/>
  <path d="m235.43938,346.04374-.24034.13109c0,0-.29066.15957-.56808.43699-.26085.26084-.5371.68642-.45883,1.17985 .00035-.003.003.007 0,.0218-.006.0289-.0242.0862-.0437.15294-.0391.13354-.0896.34019-.17479.58993-.17034.49949-.43372,1.19952-.76473,2.09753-.662,1.796-1.62064,4.33074-2.77485,7.34133-2.30842,6.0212-5.41876,13.98104-8.52119,21.91477-6.20485,15.86747-12.43221,31.63767-12.43221,31.63767l.61178.24034c0,0 6.22683-15.79072 12.4322-31.65952 3.10269-7.93439 6.18992-15.89094 8.49935-21.91476 1.15472-3.01191 2.11098-5.54027 2.77485-7.34134 .33194-.90054.59115-1.61038.76473-2.11938 .0868-.25449.15268-.46154.19664-.61177 .022-.0751.0318-.14168.0437-.19665 .006-.0275.0184-.0353.0218-.0655s.0216-.0666 0-.15294c-.0579-.23222.0598-.45315.26219-.65548 .11007-.11007.15576-.11762.24034-.17479l26.32835,33.58225 .50253-.39329-26.52495-33.82259-.1748-.21849z" fill="#3b3c3d"/>
  <path d="m270.03 298.53-0.63363 0.0218 0.32774 15.485h0.63363l-0.32774-15.507z" fill="#3b3c3d"/>
  <path d="m276.78 295.57 0.15294 17.348 0.65548-0.0218-0.17479-17.326h-0.63363z" fill="#3b3c3d"/>
  <path d="m233.79 347.66v-18.196h2.0451v18.196h-2.0451z" fill="#3b3c3d"/>
  <path d="m277.24 312.75c-3.9925 0.0141-8.7916 0.837-14.486 3.037-14.57 5.724-31.643 25.359-45.14 43.545-13.387 18.038-23.109 34.512-23.269 34.784-34.593-1.251-121.78 6.2365-267.19 86.02l0.30589 0.54623c143.5-78.732 229.97-86.937 265.32-85.933-1.9737 0.53152-25.172 6.8326-75.118 24.602-52.167 18.559-127.84 60.151-127.84 60.151l0.30589 0.56808s75.685-41.583 127.75-60.107c52.11-18.539 76.647-25.061 76.647-25.061l0.0874-0.0218 0.0655-0.0655c0.011-0.0131 0.0108-0.0306 0.0218-0.0437 39.645-47.223 57.577-61.051 71.054-68.038 13.437-6.9674 27.901-6.0959 27.901-6.0959l0.61177 0.0437-0.32773-0.52438s-2.09-3.3426-7.0354-5.5278c-2.4727-1.0926-5.6648-1.8931-9.6574-1.879zm0 0.63363c3.9056-0.0142 7.0008 0.77737 9.3952 1.8353 4.1432 1.8307 5.8629 4.0927 6.3363 4.7631-1.8723-0.0774-14.885-0.37331-27.53 6.1833-13.263 6.8767-30.872 20.536-68.65 65.198 2.4216-4.0141 9.9193-16.262 21.347-31.66 13.474-18.156 30.593-37.701 44.856-43.305 5.633-2.1763 10.34-3.001 14.246-3.0152z" fill="#3b3c3d"/>
  <path d="m274.46 333.68-266.1 144.84 0.30589 0.54623 266.1-144.82-0.30589-0.56808z" fill="#3b3c3d"/>
  <path d="m87.87 435.58-3.4959 44.184 0.63363 0.0437 3.4959-44.184z" fill="#3b3c3d"/>
  <path d="m193.04 378.1-1.2529 43.062 0.63363 0.0218 1.2529-43.062z" fill="#3b3c3d"/>
  <path d="m282.11 329.09-0.63363 0.0218 0.61178 28.688-6.3363 3.0589-1.0488-26.831-0.63363 0.0218 1.0706 27.312 0.0218 0.50253 0.43699-0.21849 6.948-3.3648 0.17479-0.0874v-0.19664l-0.61178-28.907z" fill="#3b3c3d"/>
  <path d="m330.79 294.13-56.83 39.853 0.37144 0.52438 56.83-39.853-0.37144-0.52438z" fill="#3b3c3d"/>
  <path d="m282.61 293.56-0.65548 0.0218 1.2673 27.574 0.65547-0.0218-1.2672-27.574z" fill="#3b3c3d"/>
  <path d="m288.93 290.77-0.63362 0.0437 1.0269 15.71 0.35478-0.88026z" fill="#3b3c3d"/>
  <path d="m291.4 289.91-0.63363 0.0655 1.3765 13.481 0.63363-0.0655-1.3765-13.481z" fill="#3b3c3d"/>
  <path d="m222.46 362.5 0.98321 41.208-29.824 16.496-45.272 27.421-0.0218 0.0218-43.349 31.878 0.37141 0.50256 43.327-31.856 0.0218-0.0218 45.228-27.399h0.0218l29.977-16.605 0.1748-0.0874v-0.19664l-1.0051-41.361h-0.63362z" fill="#3b3c3d"/>
  <path d="m323.89 315.85c-0.44914 0.0356-0.90646 0.13473-1.3546 0.28404-1.7928 0.59723-3.563 2.0155-5.4186 3.9766-3.7112 3.9222-7.7456 10.01-12.476 16.147-4.8003 6.2275-11.257 20.672-16.562 33.582-5.2246 12.715-9.2077 23.72-9.3296 24.056l-29.016 0.0218 0.50254-46.735-0.63363-0.0218-0.50253 47.063v0.32774h0.30588l29.562-0.0218h0.21849l0.0655-0.19664s4.1182-11.357 9.417-24.253 11.819-27.361 16.496-33.429c4.748-6.1596 8.7681-12.254 12.41-16.103 1.8211-1.9247 3.5572-3.2836 5.1783-3.8236s2.8803-0.72358 4.4797 0.56822l0.81433 0.04c-1.2978-1.0482-2.8105-1.589-4.1579-1.4822z" fill="#3b3c3d"/>
  <path d="m249.29 393.94-25.629 9.6355 0.2185 0.58993 25.629-9.6355-0.21849-0.58993z" fill="#3b3c3d"/>
  <path d="m147.19 403.35-1.5513 45.162 0.65547 0.0218 1.5294-45.162-0.63363-0.0218z" fill="#3b3c3d"/>
  <path d="m277.15 395.97s-26.142 12.744-58.032 31.878c-31.918 19.151-70.813 52.307-70.813 52.307l0.41514 0.50253s38.89-33.162 70.726-52.263c31.865-19.119 57.988-31.856 57.988-31.856l-0.28404-0.56808z" fill="#3b3c3d"/>
  <path d="m267.43 337.83-0.63363 0.0218 0.50254 31.791-12.694 24.209 0.56808 0.30588 12.738-24.296 0.0218-0.0874v-0.0655l-0.50253-31.878z" fill="#3b3c3d"/>
  <path d="m275.55 360.57-8.1716 8.9145 0.45884 0.43698 8.1934-8.9145-0.48068-0.43698z" fill="#3b3c3d"/>
  <path d="m282.55 357.71-0.30589 0.56808 8.8052 4.6976 0.30589-0.56808-8.8052-4.6976z" fill="#3b3c3d"/>
  <path d="m292.44 303-0.21849 0.1748-3.0256 2.6458-0.0437 0.0437-0.0437 0.0655-3.3762 8.388 0.61178 0.2185 3.3544-8.3225 2.7634-2.3836 4.6539 3.9329 0.39329-0.50254-4.8505-4.0858-0.21849-0.17479z" fill="#3b3c3d"/>
  <path d="m315.19 293.15s-3.3451 0.5214-9.7448 1.2891c-1.7912 0.21504-3.3441 1.9766-4.7413 4.3698s-2.6296 5.4799-3.6707 8.543c-2.0822 6.1262-3.3648 12.148-3.3648 12.148v0.0655l-0.43699 38.236 0.63363 0.0218 0.43698-38.192s1.2762-6.0018 3.3429-12.083c1.0334-3.0404 2.2676-6.1052 3.627-8.4338s2.8497-3.8727 4.2606-4.0421c6.4085-0.76876 9.7666-1.311 9.7666-1.311l-0.10924-0.61178z" fill="#3b3c3d"/>
  <path d="m336.1 318.93c-0.3861-6e-3 -0.87561 0.0933-1.5076 0.32774-2.5279 0.93791-7.5063 4.1621-17.763 13.394-10.308 9.2772-19.395 24.72-25.935 37.865s-10.531 23.99-10.531 23.99l0.61178 0.21849s3.9636-10.813 10.488-23.925 15.619-28.524 25.804-37.69c10.235-9.2118 15.234-12.397 17.567-13.262 0.58316-0.21637 0.99445-0.28802 1.2672-0.28404s0.38644 0.0675 0.45883 0.1311c0.1448 0.1273 0.1311 0.32773 0.1311 0.32773l0.63363 0.0655s0.0475-0.52482-0.34959-0.87397c-0.19857-0.17458-0.48786-0.27841-0.87397-0.28404z" fill="#3b3c3d"/>
  <path d="m274.66 333.66-0.10924 0.61178 19.118 3.2774h0.0436l32.774 1.7916h0.0218l7.1884 0.76472 0.0655-0.63363-7.2102-0.76472h-0.0218l-32.752-1.7916h-0.0218l-19.096-3.2555z" fill="#3b3c3d"/>
  <path d="m341.06 293.87-5.1346 25.607 0.63362 0.1311 5.1346-25.607-0.63363-0.13109z" fill="#3b3c3d"/>
  <path d="m345.82 294.13-9.0893 24.253 0.58993 0.24034 9.0893-24.274-0.58993-0.21849z" fill="#3b3c3d"/>
  <path d="m316.29 296.61-0.53793 0.29884 12.141 20.401 0.60172 2.1e-4z" fill="#3b3c3d"/>
  <path d="m315.75 296.61-11.894 20.7 0.69728 0.0399 11.735-20.421z" fill="#3b3c3d"/>
  <path d="m315.86 292.98-0.5814 0.0417 0.46112 3.7472 0.5814-0.0279-0.46112-3.7612z" fill-opacity=".8863"/>
  <path d="m329.63 281.92-12.607 11.536 0.43699 0.48069 12.607-11.536-0.43699-0.48069z" fill="#3b3c3d"/>
  <path d="m338.76 281.74-1.7916 8.2809 0.61178 0.13109 1.7916-8.2808-0.61177-0.1311z" fill="#3b3c3d"/>
  <path d="m345.54 281.35-0.63362 0.0655 1.0269 11.274 0.63363-0.0655-1.0269-11.274z" fill="#3b3c3d"/>
  <path d="m337.69 289.04-0.50253 0.39329 3.8892 4.9161 0.50254-0.39329-3.8892-4.9161z" fill="#3b3c3d"/>
  <path d="m356.49 240.91h-2.1124v43.113h2.1124v-43.113z" fill="#646669"/>
  <path d="m343.43 242.71h-1.7934v32.276h1.7934v-32.276z" fill="#646669"/>
  <path d="m301.06 245.78h-1.6958v28.946h1.6958v-28.946z" fill="#646669"/>
  <path d="m331.9 242.19h-1.2808v28.178h1.2808v-28.178z" fill="#646669"/>
  <path d="m316.94 274.57-0.63362 0.0218 0.19664 7.2539 0.63363-0.0218-0.19665-7.2539z" fill="#3b3c3d"/>
  <path d="m329.63 274.18-0.67732 8.3682 0.65547 0.0655 0.65548-8.3901-0.63363-0.0437z" fill="#3b3c3d"/>
  <path d="m323.84 265.09-0.28404 0.56808 15.819 7.9531 5.8774 8.3246 0.52439-0.37143-5.9211-8.3682-0.0437-0.0655-0.0874-0.0437-15.884-7.9968z" fill="#3b3c3d"/>
  <path d="m309.73 258.6-0.30589 0.56808 17.938 9.7884 2.0975 4.8068-12.279 0.30588-6.3581-5.2001-0.0218-0.0218h-0.0218l-7.2758-4.1514-0.0218-0.0218-0.17479 0.26219-0.19665 0.26219 0.0437 0.0218 5.7026 4.4572 5.7463 5.0035 0.41514-0.48069-5.7464-5.0035h-0.0218l-2.3597-1.8353 3.5396 2.0101 0.0437 0.0218 6.4018 5.222 0.0874 0.0874h0.10925l12.869-0.32774h0.45883l-0.17479-0.43698-2.3379-5.3531-0.0437-0.10925-0.0874-0.0437-18.067-9.5004z" fill="#3b3c3d"/>
  <path d="m344.82 281.17-0.45883 0.43699 10.684 11.646 0.45883-0.43698-10.684-11.646z" fill="#3b3c3d"/>
  <path d="m342.91 272.93h-45.052v1.7934h45.052z" fill="#646669"/>
  <path d="m332.67 268.07h-36.375v1.0245h36.375v-1.0245z" fill="#646669"/>
  <path d="m324.45 243.73h-1.3031v22.783h1.3031z" fill="#646669"/>
  <path d="m139.64 213.76h-3.8915v190.89h3.8915z" fill="#646669"/>
  <path d="m342.63 394.96-210.12-2.918v3.2432l210.12 2.918v-3.2432z" fill="#646669"/>
  <path d="m359.19 280.57h-59.914v2.0699h59.914z" fill="#646669"/>
  <path d="m369.57 292.69h-76.322v2.0082h76.322v-2.0082z" fill="#646669"/>
  <path d="m-50.213 400.59z" fill="none" stroke="#000" stroke-width=".63754"/>
  <path d="m324.52 264.71h-31.413v0.57889h31.413v-0.57889z" fill="#646669"/>
  <path d="m316.13 244.1h-1.3031v22.04h1.3031v-22.04z" fill="#646669"/>
  <path d="m337.77 208.82-4.1126-1.7752-0.10279 196.96h4.2154z" fill="#646669"/>
  <path d="m294.25 245.27h-1.5422v21.006h1.5422v-21.006z" fill="#646669"/>
  <path d="m-50.002 198.47c0-6.9167-3.5226-12.524-7.8677-12.524s-7.8677 5.6071-7.8677 12.524 3.5226 12.524 7.8677 12.524 7.8677-5.6071 7.8677-12.524"/>
  <path d="m13.276 203.11c0-8.411-4.2836-15.23-9.5675-15.23s-9.5675 6.8185-9.5675 15.23 4.2836 15.23 9.5675 15.23 9.5675-6.8185 9.5675-15.23"/>
  <path d="m275.41 231.23c0-3.7448-0.83709-6.7808-1.8699-6.7808s-1.8692 3.0361-1.8692 6.7808c0 3.7453 0.83644 6.7814 1.8692 6.7814s1.8699-3.0361 1.8699-6.7814"/>
  <path d="m261.47 230.56c0-4.2919-0.83708-7.7716-1.8699-7.7716s-1.8693 3.4797-1.8693 7.7716 0.83645 7.7722 1.8693 7.7722 1.8699-3.4797 1.8699-7.7722"/>
  <path d="m251.42 228.6c0-4.1227-0.83645-7.4647-1.8693-7.4647s-1.8699 3.342-1.8699 7.4647 0.83645 7.4641 1.8699 7.4641 1.8693-3.342 1.8693-7.4641"/>
  <path d="m50.413 208.2c0-6.6311-2.0438-12.006-4.565-12.006s-4.565 5.3749-4.565 12.006 2.0438 12.006 4.565 12.006 4.565-5.3754 4.565-12.006"/>
  <path d="m169.02 217.81c0-5.0091-1.6908-9.0696-3.7768-9.0696s-3.7768 4.0605-3.7768 9.0696 1.6914 9.0696 3.7768 9.0696 3.7768-4.0611 3.7768-9.0696"/>
  <path d="m197.36 221.61c0-4.2919-1.1469-7.7716-2.5616-7.7716-1.4153 0-2.5623 3.4797-2.5623 7.7716s1.1469 7.7716 2.5623 7.7716c1.4147 0 2.5616-3.4797 2.5616-7.7716"/>
  <path d="m-52.071 252.91-0.275-0.025-50.475-14.975s0.27445-31.185 2.05-33.975 1.2484-10.907 20.525-10.4l60.125 6.85 162.65 14.825 108.98 10.6 37.475 4.65 4.3 5.075 0.2 4.85c-115.26 1.6569-230.39 7.675-345.55 12.525z"/>
  <path d="m-102.62 326.79c-1.9356-59.786-1.7845-58.745-1.7845-63.641 0-8.5194 1.539-25.848 1.539-25.848s6.1688 4.7528 41.058 5.5644l34.889 0.81094s-18.257-0.40548 0 0 40.779-11.972 40.779-11.972l279.7 8.5545-1.643 29.354-188.61 46.276-104.67 23.936-101.02-9.331z" fill="#f7ab10"/>
  <path d="m291.09 251.4c0.0204-0.30347-0.21421-0.53489-0.52661-0.51514l-271.22 18.184c-2.5502 0.68332-3.9062 0.7885-4.1027 3.717l-1.2605 45.825c-0.47079 0.35459 0.97909 4.7734 5.6766 3.8261l270.44-54.538c0.31622-0.0644 0.58845-0.36276 0.60949-0.6675z" fill="#28468d"/>
  <path d="m-103.38 325.9-2e-3 10.106s0.44117 4.3933 6.5921 7.0301c8.1777 3.5046 10.544 3.0755 10.544 3.0755l24.168 22.847-4.6151 0.69555 1.977 2.3799s22.408 5.7117 44.816 4.3939c4.8376-1.1335 8.835-2.0688 12.216-2.8785 16.183-3.8762 23.375-5.9151 31.283-12.066 0 0 30.316-25.918 44.376-31.19s189.81-45.696 189.81-45.696 2.0924 1.9349 8.2434 1.9349h9.3125s3.0391 0.39209 5.0977-1.2744 10.077-10.452 10.077-10.452 1.2598-1.2885 1.3178-2.6369c0.11475-2.633 0-2.6356 0-2.6356l-106.11 23.852-168.28 34.711s-9.2252 3.0761-20.21 3.0761-54.922 1.3178-80.846-1.7577c-9.7212-1.1533-19.772-3.5147-19.772-3.5147"/>
  <path d="m-6.426 353.45-3.5205 13.505 13.7-2.3679c8.6324-2.2925 15.373-9.2855 21.781-14.845z" fill="#fff696"/>
  <path d="m-24.96 368.79-34.142-2.0368-15.276-14.499 54.364 4.3933z" fill="#fff696"/>
  <path d="m93.801 299.52-14.811 2.3704c-1.1374 0.1817-2.0344-0.43034-1.998-1.3688l0.22441-5.7385 18.767-2.6662-0.21931 5.4784c-0.03573 0.89511-0.91232 1.7571-1.9636 1.9247z" fill="#fff696" stroke="#000" stroke-width="1.275"/>
  <path d="m77.941 276.22c0.03636-0.94101 0.99201-1.7896 2.1281-1.8954l14.793-1.3752c1.0494-0.0969 1.8667 0.5521 1.831 1.4498l-0.70959 17.724-18.767 2.6662 0.72488-18.57z" fill="#fff696" stroke="#000" stroke-width="1.2751"/>
  <path d="m116.12 295.95-13.157 2.1052c-1.0073 0.1613-1.7998-0.42333-1.7641-1.307l0.2174-5.4025 16.67-2.3678-0.21294 5.1711c-0.0344 0.84536-0.8186 1.6512-1.7532 1.801z" fill="#fff696" stroke="#000" stroke-width="1.2751"/>
  <path d="m102.12 273.87c0.0364-0.88553 0.88554-1.6793 1.8916-1.773l13.138-1.2215c0.93399-0.0867 1.6595 0.5298 1.6244 1.3777l-0.68919 16.728-16.67 2.3678 0.70448-17.479z" fill="#fff696" stroke="#000" stroke-width="1.2751"/>
  <path d="m138.14 270.37c0.0344-0.80266-0.61522-1.3911-1.4542-1.3133l0.36914-0.0338c0.83772-0.0784 1.4855 0.50939 1.4517 1.3114l-0.66941 15.839-0.36595 0.0522 0.66877-15.856z" fill="#fff696"/>
  <path d="m138.14 270.37c0.0344-0.80266-0.61522-1.3911-1.4542-1.3133l0.36914-0.0338c0.83772-0.0784 1.4855 0.50939 1.4517 1.3114l-0.66941 15.839-0.36595 0.0522 0.66877-15.856z" fill="none" stroke="#000" stroke-width="1.2751"/>
  <path d="m136.05 292.76-0.36977 0.0593c0.84028-0.13452 1.5454-0.89255 1.5798-1.6933l0.20657-4.9014 0.36595-0.0522-0.20657 4.8963c-0.0338 0.80011-0.73762 1.5575-1.576 1.6914" fill="#fff696"/>
  <path d="m136.05 292.76-0.36977 0.0593c0.84028-0.13452 1.5454-0.89255 1.5798-1.6933l0.20657-4.9014 0.36595-0.0522-0.20657 4.8963c-0.0338 0.80011-0.73762 1.5575-1.576 1.6914z" fill="none" stroke="#000" stroke-width="1.2751"/>
  <path d="m123.62 271.78-0.68408 16.51-0.39846 0.0568 0.68472-16.528c0.0344-0.83773 0.79565-1.5849 1.6952-1.6678l0.39528-0.037c-0.89957 0.0835-1.6582 0.82943-1.6927 1.6659" fill="#fff696"/>
  <path d="m123.62 271.78-0.68408 16.51-0.39846 0.0568 0.68472-16.528c0.0344-0.83773 0.79565-1.5849 1.6952-1.6678l0.39528-0.037c-0.89957 0.0835-1.6582 0.82943-1.6927 1.6659z" fill="none" stroke="#000" stroke-width="1.2751"/>
  <path d="m122.72005,293.39651c-.0344.83454.66878,1.39366 1.56962,1.24958l-.39527.0631c-.90084.14408-1.60787-.41568-1.57281-1.25022l.21166-5.10922 .39846-.0568-.21166,5.10349z" fill="#fff696"/>
  <path d="m122.72005,293.39651c-.0344.83454.66878,1.39366 1.56962,1.24958l-.39527.0631c-.90084.14408-1.60787-.41568-1.57281-1.25022l.21166-5.10922 .39846-.0568-.21166,5.10349z" fill="none" stroke="#000" stroke-width="1.2751"/>
  <path d="m138.14 270.37-0.66877 15.856-14.538 2.065 0.68408-16.51c0.0344-0.83646 0.7931-1.5824 1.6927-1.6659l11.376-1.0577c0.839-0.0778 1.4887 0.51067 1.4542 1.3133z" fill="#fff696" stroke="#000" stroke-width="1.2751"/>
  <path d="m122.72 293.4 0.21166-5.1035 14.538-2.065-0.20657 4.9014c-0.0344 0.80076-0.73953 1.5588-1.5798 1.6933l-11.394 1.8234c-0.90084 0.14408-1.604-0.41504-1.5696-1.2496z" fill="#fff696" stroke="#000" stroke-width="1.2751"/>
  <path d="m142.49 269.95c0.0344-0.7931 0.71787-1.4969 1.5269-1.5728l10.585-0.98372c0.75548-0.0701 1.3395 0.4909 1.3063 1.2534l-0.64965 15.054-13.433 1.9082 0.66432-15.659z" fill="#fff696" stroke="#000" stroke-width="1.2751"/>
  <path d="m153.63 289.95-10.603 1.6965c-0.80967 0.12942-1.4402-0.40675-1.407-1.1979l0.20528-4.8408 13.433-1.9082-0.20083 4.6534c-0.0331 0.76122-0.67006 1.4759-1.4274 1.597z" fill="#fff696" stroke="#000" stroke-width="1.2751"/>
  <path d="m159.18 283.14 0.6452-14.877c0.0319-0.75358 0.65219-1.4192 1.3815-1.4874l9.5707-0.88936c0.68408-0.0644 1.21 0.47306 1.1788 1.1986l-0.63054 14.33-12.146 1.7252z" fill="#fff696" stroke="#000" stroke-width="1.2751"/>
  <path d="m171.13 285.85c-0.0318 0.72423-0.61075 1.4-1.2974 1.5097l-9.5873 1.5339c-0.73125 0.11667-1.2987-0.39783-1.2655-1.1495l0.19891-4.5992 12.146-1.7252-0.19445 4.4303z" fill="#fff696" stroke="#000" stroke-width="1.2751"/>
  <path d="m50.09 275.97c0.03762-1.0086-1.0009-1.7239-2.3276-1.5964l-7.004 0.67197c-1.3771 0.13197-2.5304 1.08-2.5686 2.1154l-1.1865 32.212c-0.03824 1.0315 1.0551 1.6716 2.4328 1.4306l7.0116-1.2266c1.328-0.23206 2.429-1.2343 2.4673-2.2397l1.175-31.367z" fill="#fff696" stroke="#000" stroke-width="1.2751"/>
  <path d="m61.397 274.41c0.03699-0.98244-0.94738-1.6831-2.2065-1.5632l-1.5479 0.14726c-1.2751 0.12113-2.3449 1.0277-2.3825 2.0242l-1.0545 27.941c-0.03762 0.99393 0.97225 1.6257 2.2492 1.4128l1.5492-0.25884c1.2604-0.21039 2.3066-1.1743 2.3442-2.1542l1.0488-27.549z" fill="#fff696" stroke="#000" stroke-width=".63754"/>
  <path d="m70.548 273.5c0.03699-0.96205-0.9053-1.6493-2.1102-1.5346l-1.4823 0.14026c-1.2215 0.11667-2.2467 1.0016-2.2836 1.9764l-1.0456 27.34c-0.03699 0.97288 0.92889 1.5945 2.1517 1.3905l1.4836-0.24801c1.2069-0.20082 2.2103-1.1412 2.2467-2.1l1.0398-26.964z" fill="#fff696" stroke="#000" stroke-width=".63754"/>
  <path d="m182.01681,262.45425c.0319-.70703-.46732-1.23045-1.1176-1.1686l-.79565.0765c-.65539.0612-1.21451.6911-1.24639,1.40514l-.88618,20.03144c-.0324.71276.47624,1.20112 1.13355,1.09147l.79819-.13325c.65157-.10838 1.20176-.76824 1.23364-1.47398l.88044-19.82871z" fill="#fff696" stroke="#000" stroke-width=".63754"/>
  <path d="m186.78 261.98c0.0312-0.69619-0.45266-1.212-1.0819-1.1514l-0.7727 0.0727c-0.63498 0.0606-1.1782 0.67962-1.2094 1.3828l-0.8779 19.72c-0.0306 0.70192 0.46221 1.1839 1.0991 1.0774l0.77398-0.12879c0.63116-0.10582 1.1654-0.75357 1.1967-1.4485l0.87215-19.524z" fill="#fff696" stroke="#000" stroke-width=".63754"/>
  <path d="m61.549 313.33-8.7253 1.6563c-1.3726 0.26076-2.4577-0.44308-2.415-1.5741l3.0627-81.547h11.186l-3.108 81.465z" fill="none" stroke="#000" stroke-width=".63754"/>
  <path d="m68.94 311.93-7.391 1.4032 3.108-81.465h9.6479l-3.0028 77.677c-0.04202 1.0774-1.0966 2.144-2.3621 2.3844z" fill="none" stroke="#000" stroke-width=".63754"/>
  <path d="m189.25 231.87-2.5189 56.297c-0.0338 0.78161-0.598 1.5167-1.2617 1.6429l-3.852 0.73062 2.6094-58.671h5.0232z" fill="none" stroke="#000" stroke-width=".63754"/>
  <path d="m181.62 290.54-4.5004 0.8543c-0.70384 0.13389-1.247-0.41313-1.2107-1.2228l2.5737-58.302h5.7468l-2.6094 58.671z" fill="none" stroke="#000" stroke-width=".63754"/>
  <path d="m208.16 280.44-16.104 2.8122c-1.2604 0.21995-2.2626-0.13197-2.2308-0.78799l0.2002-4.0127 20.415-3.2234-0.19764 3.7487c-0.0312 0.61267-0.96141 1.2668-2.0828 1.4632z" fill="#fff696" stroke="#000" stroke-width="1.2751"/>
  <path d="m190.67 265.45c0.0318-0.65858 1.087-1.3082 2.3468-1.4498l16.095-1.8042c1.1202-0.1256 1.998 0.27159 1.9649 0.88744l-0.63753 12.142-20.415 3.2234 0.64583-12.999z" fill="#fff696" stroke="#000" stroke-width="1.2751"/>
  <path d="m231.42 276.38-13.567 2.3691c-1.0558 0.18488-1.8916-0.15174-1.8597-0.7523l0.19573-3.6748 17.194-2.7146-0.19191 3.4516c-0.0312 0.56485-0.82306 1.1558-1.7711 1.321z" fill="#fff696" stroke="#000" stroke-width="1.2751"/>
  <path d="m216.82 262.42c0.0319-0.60375 0.91933-1.189 1.9738-1.307l13.554-1.5205c0.94738-0.10647 1.6863 0.26777 1.6544 0.83453l-0.62287 11.179-17.194 2.7146 0.63435-11.9z" fill="#fff696" stroke="#000" stroke-width="1.2751"/>
  <path d="m253.19 258.2-0.60629 10.371-14.323 2.262 0.61842-10.974c0.0306-0.55593 0.788-1.0889 1.6856-1.1896l11.209-1.2572c0.81541-0.0912 1.4478 0.26139 1.4166 0.78799z" fill="#fff696" stroke="#000" stroke-width="1.2751"/>
  <path d="m238.07 274.22 0.19189-3.3892 14.323-2.262-0.18616 3.2036c-0.0306 0.52343-0.71277 1.0628-1.5294 1.2056l-11.224 1.9598c-0.9002 0.15683-1.6053-0.16448-1.5754-0.71787z" fill="#fff696" stroke="#000" stroke-width="1.2751"/>
  <path d="m257.39 257.71c0.0306-0.51704 0.68535-1.006 1.4612-1.0934l10.016-1.1233c0.70702-0.0791 1.2515 0.25437 1.2222 0.74337l-0.58717 9.6619-12.714 2.007 0.60185-10.196z" fill="#fff696" stroke="#000" stroke-width="1.2751"/>
  <path d="m267.99 269.99-10.035 1.7526c-0.77589 0.13515-1.3822-0.17213-1.3529-0.68664l0.18552-3.1488 12.714-2.007-0.1817 2.9837c-0.0294 0.48773-0.62351 0.98245-1.3305 1.1061z" fill="#fff696" stroke="#000" stroke-width="1.2751"/>
  <path d="m273.15 265.32 0.58207-9.5076c0.0287-0.48134 0.60183-0.934 1.2757-1.0092l8.7355-0.97926c0.61778-0.0689 1.0927 0.24673 1.0641 0.70449l-0.56805 9.0409-11.089 1.7507z" fill="#fff696" stroke="#000" stroke-width="1.2751"/>
  <path d="m284.06 266.37c-0.028 0.45648-0.55083 0.91422-1.1705 1.022l-8.7528 1.5282c-0.67515 0.11858-1.1998-0.17531-1.1699-0.65539l0.17915-2.9371 11.089-1.7507-0.17532 2.793z" fill="#fff696" stroke="#000" stroke-width="1.2751"/>
  <path d="m-95.109 327.52s-1.4963 8.478 2.4934 8.478 58.347 3.4905 58.347 3.4905l0.45659-97.225-61.297-2.6182z" fill="none" stroke="#000" stroke-width=".63754"/>
  <path d="m-13.183 250.4c-0.20019-1.2164-1.3267-2.1714-2.5227-2.1714h-6.4238c-1.196 0-2.1651 0.95438-2.1651 2.1708v11.119c0 1.7175 1.2139 3.1666 2.7108 3.1666h8.0432c1.4969 0 2.4724-1.4491 2.1893-3.1666l-1.8316-11.119z"/>
  <path d="m-96.606 241.65c0-1.0653-0.91742-1.5518-2.0108-1.1438l-1.4376 0.53681c-1.0003 0.37296-1.8737 1.4523-1.9866 2.4603l-1.6691 14.843c-0.20274 1.8087 0.70511 3.3522 2.1039 3.3522h2.0503c1.5913 0 2.9499-1.7628 2.9499-3.8131v-16.236z"/>
  <path d="m-11.827 312.28c0-1.4969-1.2139-2.7108-2.7108-2.7108h-8.0438c-1.4969 0-2.7108 1.2139-2.7108 2.7108v6.0483c0 1.4976 1.2139 2.7108 2.7108 2.7108h8.0438c1.4969 0 2.7108-1.2132 2.7108-2.7108v-6.0483z"/>
  <path d="m-97.705 307.52c0-1.4963-0.39336-2.7102-0.87853-2.7102h-2.6062c-0.48517 0-0.87853 1.2139-0.87853 2.7102v6.049c0 1.4969 0.39336 2.7108 0.87853 2.7108h2.6062c0.48517 0 0.87853-1.2139 0.87853-2.7108v-6.049z"/>
  <path d="m-97.96 258.35c0-0.98181-0.79629-1.7775-1.7781-1.7775h-0.32323c-0.98181 0-1.7781 0.79565-1.7781 1.7775s0.79629 1.7781 1.7781 1.7781h0.32323c0.98181 0 1.7781-0.79565 1.7781-1.7781" fill="#ff7f2a"/>
  <path d="m-13.27 260.46c0-1.4287-1.1578-2.5865-2.5858-2.5865h-3.5556c-1.4287 0-2.5865 1.1578-2.5865 2.5865s1.1578 2.5852 2.5865 2.5852h3.5556c1.4281 0 2.5858-1.1578 2.5858-2.5852" fill="#ff7f2a"/>
  <path d="m156.96 216.1c0-5.1405-1.8361-9.3079-4.1006-9.3079-2.2652 0-4.1013 4.1674-4.1013 9.3079s1.8361 9.3073 4.1013 9.3073c2.2646 0 4.1006-4.1674 4.1006-9.3073"/>
  <path d="m189.45 219.29c0-4.1891-1.4734-7.5855-3.2903-7.5855s-3.2903 3.3964-3.2903 7.5855 1.4727 7.5861 3.2903 7.5861 3.2903-3.3964 3.2903-7.5861"/>
  <path d="m220.07 225.13c0-4.2925-0.83645-7.7722-1.8693-7.7722s-1.8699 3.4797-1.8699 7.7722 0.83709 7.7716 1.8699 7.7716 1.8693-3.4797 1.8693-7.7716"/>
  <path d="m254.36 221.86c-1.8907 0.9314-1.5336 2.5243-1.7644 3.7661 0.19106 1.3071-0.13613 2.9 1.677 3.9472 1.6082-0.13912 1.4926-1.3683 1.8353-2.0126 0.30072-1.8511 0.62237-3.9056-1.1799-5.5919-0.13264-0.0813-0.35926-0.13727-0.56808-0.1088z"/>
  <path d="m266.66 227.16c0-2.0802-0.83644-3.7668-1.8692-3.7668s-1.8699 1.6866-1.8699 3.7668 0.83709 3.7668 1.8699 3.7668 1.8692-1.6862 1.8692-3.7668"/>
  <path d="m280.6 229.68c0-2.2896-0.8371-4.1456-1.8699-4.1456s-1.8699 1.856-1.8699 4.1456 0.83709 4.1453 1.8699 4.1453 1.8699-1.856 1.8699-4.1453"/>
  <path d="m77.381 207.38c0-4.9211-2.5062-8.9105-5.5978-8.9105s-5.5978 3.9893-5.5978 8.9105 2.5063 8.9108 5.5978 8.9108 5.5978-3.9893 5.5978-8.9108"/>
 </g>
</svg>
